<svg xmlns="http://www.w3.org/2000/svg">
    <defs>
        <symbol id="arrow" width="26" height="26" viewBox="0 0 26 26" fill="none" xmlns="http://www.w3.org/2000/svg">
            <path fill-rule="evenodd" clip-rule="evenodd" d="M4.29289 8.29289C4.68342 7.90237 5.31658 7.90237 5.70711 8.29289L13 15.5858L20.2929 8.29289C20.6834 7.90237 21.3166 7.90237 21.7071 8.29289C22.0976 8.68342 22.0976 9.31658 21.7071 9.70711L13.7071 17.7071C13.3166 18.0976 12.6834 18.0976 12.2929 17.7071L4.29289 9.70711C3.90237 9.31658 3.90237 8.68342 4.29289 8.29289Z" fill="#212429"/>
        </symbol>
        <symbol id="x" width="24" height="24" viewBox="0 0 24 24" fill="none" xmlns="http://www.w3.org/2000/svg">
            <path fill-rule="evenodd" clip-rule="evenodd" d="M18.7071 5.29289C19.0976 5.68342 19.0976 6.31658 18.7071 6.70711L6.70711 18.7071C6.31658 19.0976 5.68342 19.0976 5.29289 18.7071C4.90237 18.3166 4.90237 17.6834 5.29289 17.2929L17.2929 5.29289C17.6834 4.90237 18.3166 4.90237 18.7071 5.29289Z" fill="#212429"/>
            <path fill-rule="evenodd" clip-rule="evenodd" d="M5.29289 5.29289C5.68342 4.90237 6.31658 4.90237 6.70711 5.29289L18.7071 17.2929C19.0976 17.6834 19.0976 18.3166 18.7071 18.7071C18.3166 19.0976 17.6834 19.0976 17.2929 18.7071L5.29289 6.70711C4.90237 6.31658 4.90237 5.68342 5.29289 5.29289Z" fill="#212429"/>
        </symbol>
        <symbol id="help" width="24" height="24" viewBox="0 0 24 24" fill="none" xmlns="http://www.w3.org/2000/svg">
            <path fill-rule="evenodd" clip-rule="evenodd" d="M12 3C7.02944 3 3 7.02944 3 12C3 16.9706 7.02944 21 12 21C16.9706 21 21 16.9706 21 12C21 7.02944 16.9706 3 12 3ZM1 12C1 5.92487 5.92487 1 12 1C18.0751 1 23 5.92487 23 12C23 18.0751 18.0751 23 12 23C5.92487 23 1 18.0751 1 12Z" fill="#212429"/>
            <path fill-rule="evenodd" clip-rule="evenodd" d="M12.2582 8.02434C11.7927 7.94449 11.314 8.03197 10.9068 8.27129C10.4996 8.5106 10.1902 8.88631 10.0335 9.33187C9.85018 9.85286 9.27926 10.1266 8.75827 9.94336C8.23728 9.76008 7.96351 9.18917 8.14678 8.66818C8.46025 7.77707 9.07898 7.02565 9.89339 6.54702C10.7078 6.06839 11.6653 5.89343 12.5964 6.05313C13.5274 6.21283 14.3719 6.69688 14.9802 7.41955C15.5884 8.14207 15.9214 9.0565 15.9201 10.0009C15.9197 11.5313 14.7851 12.5419 13.9748 13.0821C13.5392 13.3725 13.1107 13.586 12.795 13.7263C12.6358 13.7971 12.5016 13.8508 12.405 13.8876C12.3566 13.9061 12.3174 13.9204 12.2888 13.9305L12.2541 13.9427L12.243 13.9465L12.2391 13.9478L12.2376 13.9483C12.2373 13.9484 12.2363 13.9487 11.9201 13L12.2363 13.9487C11.7124 14.1234 11.1461 13.8402 10.9714 13.3162C10.7969 12.7927 11.0796 12.2267 11.6028 12.0517L11.6016 12.0521C11.6017 12.0521 11.6018 12.0521 11.6028 12.0517L11.6188 12.0461C11.6342 12.0406 11.6594 12.0315 11.693 12.0187C11.7605 11.993 11.8607 11.9529 11.9827 11.8987C12.2296 11.789 12.551 11.6276 12.8654 11.418C13.555 10.9582 13.9201 10.4692 13.9201 10L13.9201 9.99853C13.9208 9.52621 13.7543 9.06889 13.4502 8.70755C13.146 8.34622 12.7238 8.10419 12.2582 8.02434Z" fill="#212429"/>
            <path fill-rule="evenodd" clip-rule="evenodd" d="M12 15C12.5523 15 13 15.4477 13 16V16.5C13 17.0523 12.5523 17.5 12 17.5C11.4477 17.5 11 17.0523 11 16.5V16C11 15.4477 11.4477 15 12 15Z" fill="#212429"/>
        </symbol>
        <symbol  id="logo"
                 xmlns="http://www.w3.org/2000/svg"
                 xmlns:xlink="http://www.w3.org/1999/xlink"
                 x="0px" y="0px" viewBox="0 0 110 32"
                 overflow="visible" xml:space="preserve">
            <rect y="1" fill="#212429" width="30" height="30"/>
            <path fill="#212429" d="M54,0L54,0c8.84,0,16,7.16,16,16l0,0c0,8.84-7.16,16-16,16l0,0c-8.84,0-16-7.16-16-16l0,0
	C38,7.16,45.16,0,54,0z"/>
            <path fill="#212429" d="M78,0l32,32H78V0z"/>
        </symbol>
    </defs>
</svg>
